<svg width="48.000000" height="48.000000" viewBox="0 0 48 48" fill="none" xmlns="http://www.w3.org/2000/svg" xmlns:xlink="http://www.w3.org/1999/xlink">
	<desc>
			Created with Pixso.
	</desc>
	<defs>
		<clipPath id="clip993_518">
			<rect id="carbon:tool-box" rx="-0.500000" width="47.000000" height="39.708862" transform="translate(1.000000 4.500000)" fill="white" fill-opacity="0"/>
		</clipPath>
		<clipPath id="clip965_141">
			<rect id="icn settings .icn-lg" rx="-0.500000" width="47.000000" height="47.000000" transform="translate(0.500000 0.500000)" fill="white" fill-opacity="0"/>
		</clipPath>
	</defs>
	<rect id="icn settings .icn-lg" rx="-0.500000" width="47.000000" height="47.000000" transform="translate(0.500000 0.500000)" fill="#FFFFFF" fill-opacity="0"/>
	<g clip-path="url(#clip965_141)">
		<rect id="carbon:tool-box" rx="-0.500000" width="47.000000" height="39.708862" transform="translate(1.000000 4.500000)" fill="#FFFFFF" fill-opacity="0"/>
		<g clip-path="url(#clip993_518)">
			<path id="Vector" d="M43.08 12.52L38.01 12.52L38.01 7.45C38.01 6.55 37.66 5.69 37.02 5.06C36.39 4.43 35.53 4.07 34.63 4.07L14.36 4.07C13.46 4.07 12.6 4.43 11.97 5.06C11.33 5.69 10.98 6.55 10.98 7.45L10.98 12.52L5.91 12.52C4.56 12.52 3.27 13.05 2.32 14.01C1.37 14.96 0.84 16.25 0.84 17.59L0.84 41.25C0.84 42.14 1.19 43 1.83 43.64C2.46 44.27 3.32 44.63 4.22 44.63L44.77 44.63C45.67 44.63 46.53 44.27 47.16 43.64C47.8 43 48.15 42.14 48.15 41.25L48.15 17.59C48.15 16.25 47.62 14.96 46.67 14.01C45.72 13.05 44.43 12.52 43.08 12.52ZM14.36 7.45L34.63 7.45L34.63 12.52L14.36 12.52L14.36 7.45ZM44.77 41.25L4.22 41.25L4.22 26.04L17.74 26.04L17.74 34.49L31.25 34.49L31.25 26.04L44.77 26.04L44.77 41.25ZM21.12 26.04L27.87 26.04L27.87 31.11L21.12 31.11L21.12 26.04ZM4.22 22.66L4.22 17.59C4.22 17.14 4.39 16.71 4.71 16.4C5.03 16.08 5.46 15.9 5.91 15.9L43.08 15.9C43.53 15.9 43.96 16.08 44.28 16.4C44.6 16.71 44.77 17.14 44.77 17.59L44.77 22.66L4.22 22.66Z" fill="#0D5C63" fill-opacity="1.000000" fill-rule="nonzero"/>
		</g>
	</g>
</svg>
