<svg width="47.991211" height="37.898438" viewBox="0 0 47.9912 37.8984" fill="none" xmlns="http://www.w3.org/2000/svg" xmlns:xlink="http://www.w3.org/1999/xlink">
	<desc>
			Created with Pixso.
	</desc>
	<defs/>
	<path id="Vector" d="M44.56 0L3.42 0C2.51 0 1.64 0.36 1 1.01C0.36 1.65 0 2.53 0 3.44L0 34.45C0 35.36 0.36 36.24 1 36.88C1.64 37.53 2.51 37.89 3.42 37.89L44.56 37.89C45.47 37.89 46.34 37.53 46.98 36.88C47.62 36.24 47.99 35.36 47.99 34.45L47.99 3.44C47.99 2.53 47.62 1.65 46.98 1.01C46.34 0.36 45.47 0 44.56 0ZM3.42 3.44L22.28 3.44L22.28 34.45L3.42 34.45L3.42 3.44ZM25.71 34.45L25.71 3.44L44.56 3.44L44.56 34.45L25.71 34.45Z" fill="#FFFFFF" fill-opacity="1.000000" fill-rule="nonzero"/>
</svg>
